<svg id="Layer_1" data-name="Layer 1" xmlns="http://www.w3.org/2000/svg" xmlns:xlink="http://www.w3.org/1999/xlink" viewBox="0 0 841.89 595.28"><defs><style>.cls-1{fill:url(#radial-gradient);}</style><radialGradient id="radial-gradient" cx="404.12" cy="363.61" r="305.52" gradientTransform="translate(701.53 -106.25) rotate(90)" gradientUnits="userSpaceOnUse"><stop offset="0"/><stop offset="0.36" stop-color="#b7b7b7"/><stop offset="0.5" stop-color="#fff"/><stop offset="0.63" stop-color="#c5c4c4"/><stop offset="0.74" stop-color="#d2d2d2"/><stop offset="0.84" stop-color="#ddd"/><stop offset="1" stop-color="#f0f0f0"/><stop offset="1" stop-color="#231f20"/></radialGradient></defs><title>gee</title><path class="cls-1" d="M288,185.49c21.41-25.87,48.16-41.92,81.16-48.16V-1.81H395a255,255,0,0,1,127.53,33.9c38.35,22.29,69.57,53.51,92.76,92.75a249.36,249.36,0,0,1,33.89,126.65v346H598.34v-346A202.89,202.89,0,0,0,575.15,157a208.86,208.86,0,0,0-64.21-72.24,210.34,210.34,0,0,0-91-34.79V185.49H395c-24.08,0-45.49,8.92-62.43,26.75-17.84,16.95-26.76,38.35-26.76,62.43v45.49c0,24.08,8.92,45.48,26.76,63.32A86.21,86.21,0,0,0,395,409.35h30.32l-8.92-12.49a141.49,141.49,0,0,1-20.51-73.13c0-9.81,1.78-21.41,4.46-33l5.35-25,49.94,12.49-6.24,25a86.66,86.66,0,0,0-2.67,20.52A85.21,85.21,0,0,0,460.1,370.1c11.6,19.62,28.54,33,52.62,39.25l26.76,6.24-5.35,44.59H223.76a200,200,0,0,1-99-25.86c-30.32-17.84-54.4-41.92-71.35-72.24a191.9,191.9,0,0,1-26.75-99V134.65H77.49V263.08c0,25.86,6.25,50.84,19.62,73.13a153.63,153.63,0,0,0,53.52,53.51c22.29,13.38,46.37,19.63,73.13,19.63h63.32A137.05,137.05,0,0,1,255,320.16V274.67C255,240.78,265.68,211.35,288,185.49Z"/></svg>