<?xml version="1.0" encoding="utf-8"?>
<!-- Generator: Adobe Illustrator 22.0.0, SVG Export Plug-In . SVG Version: 6.00 Build 0)  -->
<svg version="1.1" id="Layer_1" xmlns="http://www.w3.org/2000/svg" xmlns:xlink="http://www.w3.org/1999/xlink" x="0px" y="0px"
	 viewBox="0 0 7.6 10" style="enable-background:new 0 0 7.6 10;" xml:space="preserve">
<style type="text/css">
	.st0{fill:#FFFFFF;}
	.st1{fill:none;stroke:#010101;stroke-width:0.75;stroke-linejoin:round;}
	.st2{fill:none;stroke:#010101;stroke-width:0.75;stroke-linecap:round;}
</style>
<g>
	<path class="st0" d="M1.9,3.7c0.2-0.1,0.7,0,0.8,0.3C2.9,4.2,3,4.6,3,4.5C3,4.3,3,1.1,3,0.9c0.1-0.2,0.2-0.3,0.3-0.4
		c0.1,0,0.3-0.1,0.5,0c0.2,0,0.3,0.2,0.4,0.3c0.2,0.3,0.2,3.8,0.2,3.7c0-0.1,0-0.7,0.1-0.9c0.1-0.1,0.2-0.2,0.3-0.3
		c0.1,0,0.3,0,0.5,0c0.1,0,0.3,0.2,0.3,0.3c0.1,0.2,0.2,0.7,0.2,0.9c0,0.1,0-0.2,0.1-0.4C6.3,3.8,7,3.7,7,4.5c0,0.4,0,0.3,0,0.6
		c0,0.3,0,0.5,0,0.7c0,0.2-0.1,0.7-0.1,1c0,0.2-0.2,0.5-0.3,0.8c0,0-0.5,0.7-0.6,1s0,0.3-0.1,0.5C5.9,9.2,6,9.5,6,9.5
		s-0.4,0.1-0.6,0C5.2,9.4,4.9,9,4.8,8.9c-0.1-0.2-0.3-0.1-0.3,0C4.4,9.1,4.2,9.5,4,9.5c-0.3,0-1,0-1.6,0c0,0,0.1-0.6-0.1-0.7
		C2.1,8.6,1.9,8.3,1.7,8.2L1.3,7.7C1.2,7.5,0.8,7.2,0.7,6.6c-0.1-0.5-0.1-0.8,0-1C0.8,5.4,1,5.3,1.1,5.3c0.1,0,0.3,0,0.4,0
		c0.1,0.1,0.2,0.1,0.2,0.2C1.9,5.7,2,5.8,1.9,5.6c0-0.1-0.2-0.3-0.2-0.5C1.7,4.9,1.5,4.6,1.5,4.2C1.5,4.1,1.6,3.8,1.9,3.7"/>
	<path class="st1" d="M1.9,3.7c0.2-0.1,0.7,0,0.8,0.3C2.9,4.2,3,4.6,3,4.5C3,4.3,3,1.1,3,0.9c0.1-0.2,0.2-0.3,0.3-0.4
		c0.1,0,0.3-0.1,0.5,0c0.2,0,0.3,0.2,0.4,0.3c0.2,0.3,0.2,3.8,0.2,3.7c0-0.1,0-0.7,0.1-0.9c0.1-0.1,0.2-0.2,0.3-0.3
		c0.1,0,0.3,0,0.5,0c0.1,0,0.3,0.2,0.3,0.3c0.1,0.2,0.2,0.7,0.2,0.9c0,0.1,0-0.2,0.1-0.4C6.3,3.8,7,3.7,7,4.5c0,0.4,0,0.3,0,0.6
		c0,0.3,0,0.5,0,0.7c0,0.2-0.1,0.7-0.1,1c0,0.2-0.2,0.5-0.3,0.8c0,0-0.5,0.7-0.6,1s0,0.3-0.1,0.5C5.9,9.2,6,9.5,6,9.5
		s-0.4,0.1-0.6,0C5.2,9.4,4.9,9,4.8,8.9c-0.1-0.2-0.3-0.1-0.3,0C4.4,9.1,4.2,9.5,4,9.5c-0.3,0-1,0-1.6,0c0,0,0.1-0.6-0.1-0.7
		C2.1,8.6,1.9,8.3,1.7,8.2L1.3,7.7C1.2,7.5,0.8,7.2,0.7,6.6c-0.1-0.5-0.1-0.8,0-1C0.8,5.4,1,5.3,1.1,5.3c0.1,0,0.3,0,0.4,0
		c0.1,0.1,0.2,0.1,0.2,0.2C1.9,5.7,2,5.8,1.9,5.6c0-0.1-0.2-0.3-0.2-0.5C1.7,4.9,1.5,4.6,1.5,4.2C1.5,4.1,1.6,3.8,1.9,3.7z"/>
	<line class="st2" x1="5.4" y1="7.9" x2="5.4" y2="6"/>
	<line class="st2" x1="4.4" y1="7.9" x2="4.4" y2="6"/>
	<line class="st2" x1="3.4" y1="6" x2="3.4" y2="7.9"/>
</g>
</svg>
